<svg width="54" height="64" viewBox="0 0 54 64" fill="none" xmlns="http://www.w3.org/2000/svg">
<path d="M14.1832 57.0932V63.9068H13V57.0932H14.1832Z" fill="#3E4095"/>
<path d="M21.4142 59.3921H20.2214C20.1874 59.1881 20.1247 59.0073 20.0333 58.8498C19.9419 58.6901 19.8281 58.5548 19.692 58.4439C19.556 58.333 19.4008 58.2498 19.2264 58.1944C19.0542 58.1367 18.8682 58.1079 18.6683 58.1079C18.3133 58.1079 17.9986 58.201 17.7244 58.3874C17.4501 58.5715 17.2354 58.842 17.0801 59.1991C16.9249 59.554 16.8473 59.9876 16.8473 60.5C16.8473 61.0212 16.9249 61.4604 17.0801 61.8175C17.2375 62.1724 17.4522 62.4407 17.7244 62.6226C17.9986 62.8023 18.3122 62.8921 18.6651 62.8921C18.8607 62.8921 19.0436 62.8655 19.2137 62.8123C19.3859 62.7568 19.54 62.6759 19.6761 62.5694C19.8143 62.4629 19.9302 62.3321 20.0237 62.1768C20.1194 62.0215 20.1853 61.8441 20.2214 61.6445L21.4142 61.6511C21.3695 61.975 21.2728 62.2788 21.124 62.5627C20.9773 62.8466 20.7849 63.0973 20.5467 63.3146C20.3086 63.5298 20.0301 63.6984 19.7112 63.8203C19.3923 63.9401 19.0383 64 18.6492 64C18.0752 64 17.5628 63.8614 17.112 63.5841C16.6613 63.3069 16.3063 62.9065 16.0469 62.3831C15.7875 61.8596 15.6578 61.2319 15.6578 60.5C15.6578 59.7658 15.7885 59.1381 16.0501 58.6169C16.3116 58.0935 16.6677 57.6931 17.1184 57.4159C17.5691 57.1386 18.0794 57 18.6492 57C19.0128 57 19.3508 57.0532 19.6633 57.1597C19.9759 57.2662 20.2544 57.4225 20.4989 57.6288C20.7434 57.8329 20.9443 58.0835 21.1016 58.3807C21.2611 58.6757 21.3653 59.0128 21.4142 59.3921Z" fill="#3E4095"/>
<path d="M28.693 60.5C28.693 61.2342 28.5612 61.863 28.2976 62.3864C28.0361 62.9076 27.6789 63.3069 27.226 63.5841C26.7753 63.8614 26.264 64 25.6921 64C25.1201 64 24.6077 63.8614 24.1549 63.5841C23.7042 63.3047 23.347 62.9043 23.0833 62.3831C22.8218 61.8596 22.6911 61.2319 22.6911 60.5C22.6911 59.7658 22.8218 59.1381 23.0833 58.6169C23.347 58.0935 23.7042 57.6931 24.1549 57.4159C24.6077 57.1386 25.1201 57 25.6921 57C26.264 57 26.7753 57.1386 27.226 57.4159C27.6789 57.6931 28.0361 58.0935 28.2976 58.6169C28.5612 59.1381 28.693 59.7658 28.693 60.5ZM27.5035 60.5C27.5035 59.9832 27.4259 59.5474 27.2707 59.1925C27.1176 58.8354 26.905 58.5659 26.6329 58.384C26.3607 58.1999 26.0471 58.1079 25.6921 58.1079C25.337 58.1079 25.0234 58.1999 24.7513 58.384C24.4791 58.5659 24.2654 58.8354 24.1102 59.1925C23.9572 59.5474 23.8806 59.9832 23.8806 60.5C23.8806 61.0168 23.9572 61.4537 24.1102 61.8108C24.2654 62.1657 24.4791 62.4352 24.7513 62.6193C25.0234 62.8012 25.337 62.8921 25.6921 62.8921C26.0471 62.8921 26.3607 62.8012 26.6329 62.6193C26.905 62.4352 27.1176 62.1657 27.2707 61.8108C27.4259 61.4537 27.5035 61.0168 27.5035 60.5Z" fill="#3E4095"/>
<path d="M30.1708 63.9068V57.0932H31.354V62.8721H34.2306V63.9068H30.1708Z" fill="#3E4095"/>
<path d="M37.83 63.9068H35.6167V57.0932H37.8746C38.5231 57.0932 39.0801 57.2296 39.5458 57.5024C40.0135 57.773 40.3728 58.1622 40.6237 58.6702C40.8746 59.1781 41 59.7858 41 60.4933C41 61.2031 40.8735 61.8131 40.6205 62.3232C40.3696 62.8333 40.0071 63.2248 39.533 63.4976C39.061 63.7704 38.4933 63.9068 37.83 63.9068ZM36.7999 62.8389H37.7726C38.2276 62.8389 38.6071 62.7524 38.9111 62.5794C39.2151 62.4042 39.4437 62.1435 39.5968 61.7975C39.7499 61.4493 39.8264 61.0146 39.8264 60.4933C39.8264 59.9721 39.7499 59.5396 39.5968 59.1958C39.4437 58.8498 39.2173 58.5914 38.9175 58.4206C38.6198 58.2476 38.2499 58.1611 37.8077 58.1611H36.7999V62.8389Z" fill="#3E4095"/>
<g clip-path="url(#clip0_2340_9523)">
<circle cx="27" cy="27" r="26.75" stroke="#3E4095" stroke-width="0.5"/>
<path d="M18 9V52C25 55.5 36 53.5 42 49C37.5 44 26.8333 20.7657 23 9H18Z" fill="#3E4095"/>
<path d="M16.7539 12H3.28571L1 16H16.7539V12Z" fill="#3E4095"/>
<path d="M16.7575 18.5H-0.419355L-1 22.5H16.7575V18.5Z" fill="#3E4095"/>
<path d="M16.7599 25H-1V29H16.7599V25Z" fill="#3E4095"/>
<path d="M16.7566 31.5H-1L0.125 35.5H16.7566V31.5Z" fill="#3E4095"/>
<path d="M16.7715 38H1L3.28571 42H16.7715V38Z" fill="#3E4095"/>
<path d="M54.0002 38H36.6133L38.6367 42H54.0002V38Z" fill="#3E4095"/>
<path d="M54.0002 32H33.7041L35.6074 36H54.0002V32Z" fill="#3E4095"/>
</g>
<defs>
<clipPath id="clip0_2340_9523">
<rect width="54" height="54" rx="27" fill="white"/>
</clipPath>
</defs>
</svg>
