<svg width="42" height="41" viewBox="0 0 42 41" fill="none" xmlns="http://www.w3.org/2000/svg">
<path d="M21.9671 0.251024H21.967C21.5889 0.251024 21.2852 0.554676 21.2852 0.932819V1.86461C21.2852 2.24276 21.5889 2.54641 21.967 2.54641H31.2887H31.5381L31.5387 2.79579L31.5536 8.83847V8.83908C31.5536 9.46894 32.0653 9.98059 32.6982 9.98302C32.6983 9.98302 32.6984 9.98303 32.6985 9.98303M21.9671 0.251024L32.6976 10.233L32.6985 9.98303M21.9671 0.251024L33.1364 0.25C33.4406 0.2503 33.7323 0.371429 33.9473 0.586716L33.9474 0.586815L40.948 7.58824L40.9481 7.58837C41.1634 7.80339 41.2845 8.09516 41.2847 8.39946M21.9671 0.251024L41.2847 8.39946M32.6985 9.98303L38.74 9.99884L38.9894 9.99949V10.2488V36.8069C38.9894 37.7435 38.2783 38.4546 37.3417 38.4546H15.9104C14.9737 38.4546 14.2627 37.7435 14.2627 36.8069V35.4092C14.2627 35.0311 13.959 34.7274 13.5809 34.7274H12.6491C12.2709 34.7274 11.9673 35.0311 11.9673 35.4092V36.8069C11.9673 38.9676 13.7497 40.75 15.9104 40.75H37.3417C39.5023 40.75 41.2847 38.9676 41.2847 36.8069V8.39946M32.6985 9.98303L41.2847 8.39946M12.6491 20.2505C12.2709 20.2505 11.9673 19.9469 11.9673 19.5687V10.2508C11.9673 9.87263 12.2709 9.56897 12.6491 9.56897H13.5809C13.959 9.56897 14.2627 9.87263 14.2627 10.2508V19.5687C14.2627 19.9469 13.959 20.2505 13.5809 20.2505H12.6491Z" fill="#303030" stroke="white" stroke-width="0.5"/>
<path d="M11.9653 4.19405C11.9653 2.03339 13.7477 0.250977 15.9084 0.250977H18.2379C18.616 0.250977 18.9197 0.554629 18.9197 0.932771V1.86457C18.9197 2.24271 18.616 2.54636 18.2379 2.54636H15.9084C14.9718 2.54636 14.2607 3.25743 14.2607 4.19405V6.52354C14.2607 6.90168 13.9571 7.20534 13.5789 7.20534H12.6471C12.269 7.20534 11.9653 6.90168 11.9653 6.52354V4.19405Z" fill="#FF0000" stroke="white" stroke-width="0.5"/>
<path d="M25.2759 23H1.72414C0.771923 23 0 23.6378 0 24.4245V31.5755C0 32.3622 0.771923 33 1.72414 33H25.2759C26.2281 33 27 32.3622 27 31.5755V24.4245C27 23.6378 26.2281 23 25.2759 23Z" fill="#FF0000"/>
<path d="M12.8892 29.7638V29.6138V26.3711V26.2211H13.0392H13.4789C13.6619 26.2175 13.8418 26.2675 13.9977 26.3648C14.1538 26.4621 14.2793 26.6026 14.3601 26.7695C14.3602 26.7699 14.3604 26.7702 14.3606 26.7705L14.2255 26.8357C14.4005 27.1852 14.4881 27.5741 14.4804 27.9672L12.8892 29.7638ZM12.8892 29.7638H13.0392H13.4804V29.7638L13.4831 29.7638C13.6571 29.7607 13.8269 29.7103 13.9754 29.6181C14.1233 29.5262 14.2446 29.3962 14.3275 29.2415C14.5455 28.8545 14.6505 28.4114 14.6305 27.9651L12.8892 29.7638ZM7.70588 28.6657H7.55588V28.8157V30.8478H6.15V25.1573H8.35294V25.1575L8.36127 25.1571C8.79583 25.1329 9.23047 25.2045 9.63628 25.3672C9.91082 25.4962 10.1428 25.7066 10.3022 25.9725C10.4655 26.2537 10.55 26.5764 10.5461 26.9047L10.5459 26.9047L10.5462 26.9131C10.5568 27.15 10.5172 27.3863 10.4302 27.6055C10.3435 27.8239 10.212 28.02 10.0451 28.1804C9.66584 28.5195 9.1746 28.6931 8.6748 28.666L8.67481 28.6657H8.66667H7.70588ZM7.55588 27.5328V27.6828H7.70588H8.27451C8.54082 27.6828 8.76701 27.6296 8.92869 27.4993C9.09652 27.364 9.16961 27.1666 9.16961 26.9368C9.16961 26.7106 9.10365 26.519 8.94359 26.3895C8.7904 26.2656 8.57746 26.2211 8.33333 26.2211H7.70588H7.55588V26.3711V27.5328ZM13.5588 30.8478H11.4833V25.1573H13.4804V25.1577L13.492 25.1568C13.8591 25.1284 14.2278 25.189 14.5683 25.334C14.9083 25.4787 15.2111 25.7036 15.4523 25.991C15.8916 26.5472 16.1266 27.2463 16.1147 27.9647L16.1144 27.9647L16.1149 27.9749C16.1543 28.7369 15.8992 29.4831 15.4066 30.0506C15.1749 30.3152 14.8897 30.5237 14.5716 30.6614C14.2534 30.7991 13.9098 30.8627 13.5653 30.8479L13.5653 30.8478H13.5588ZM18.6471 27.5919H20.301V28.6051H18.6471H18.4971V28.7551V30.8478H17.1402V25.1573H20.85V26.2817H18.6471H18.4971V26.4317V27.4419V27.5919H18.6471Z" fill="white" stroke="#FF0000" stroke-width="0.3"/>
</svg>
