<svg width="42" height="42" viewBox="0 0 42 42" fill="none" xmlns="http://www.w3.org/2000/svg">
<path d="M22.4006 0.251025H22.4006C22.0216 0.251025 21.7173 0.55535 21.7173 0.934328V1.86763C21.7173 2.24661 22.0216 2.55093 22.4006 2.55093H31.7374H31.9868L31.9874 2.80032L32.0023 8.85277V8.85339C32.0023 9.48449 32.515 9.99714 33.1492 9.99958C33.1493 9.99958 33.1494 9.99958 33.1494 9.99958M22.4006 0.251025L33.1485 10.2496L33.1494 9.99958M22.4006 0.251025L33.588 0.25C33.8928 0.250301 34.1851 0.371669 34.4005 0.587379L34.4006 0.587478L41.4125 7.60024L41.4127 7.60036C41.6284 7.8158 41.7497 8.10815 41.75 8.41305M22.4006 0.251025L41.75 8.41305M33.1494 9.99958L39.2007 10.0154L39.4501 10.0161V10.2654V36.8665C39.4501 37.8044 38.738 38.5164 37.8001 38.5164H16.3341C15.3962 38.5164 14.6842 37.8044 14.6842 36.8665V35.4665C14.6842 35.0876 14.3799 34.7832 14.0009 34.7832H13.0676C12.6886 34.7832 12.3843 35.0876 12.3843 35.4665V36.8665C12.3843 39.0309 14.1698 40.8163 16.3341 40.8163H37.8001C39.9645 40.8163 41.75 39.0309 41.75 36.8665V8.41305M33.1494 9.99958L41.75 8.41305M13.0676 20.2837C12.6886 20.2837 12.3843 19.9794 12.3843 19.6004V10.2674C12.3843 9.88838 12.6886 9.58405 13.0676 9.58405H14.0009C14.3799 9.58405 14.6842 9.88838 14.6842 10.2674V19.6004C14.6842 19.9794 14.3799 20.2837 14.0009 20.2837H13.0676Z" fill="#303030" stroke="white" stroke-width="0.5"/>
<path d="M1.86661 22.4006C0.832506 22.4006 0 23.2331 0 24.2672V30.8004C0 31.8345 0.832506 32.667 1.86661 32.667H25.1992C26.2333 32.667 27.0658 31.8345 27.0658 30.8004V24.2672C27.0658 23.2331 26.2333 22.4006 25.1992 22.4006H1.86661ZM16.9114 24.9486H20.654C21.1094 24.9486 21.1272 25.0559 21.1449 25.4927L21.1888 26.7937V26.8282C21.1888 27.1763 21.0646 27.3462 20.7258 27.3462C20.4589 27.3462 20.2881 27.1595 20.2881 26.9822C20.2881 26.9542 20.2788 26.9001 20.2788 26.7937L20.2536 25.9117H19.3436V29.154H20.0753C20.4403 29.154 20.6185 29.2698 20.6185 29.6356C20.6185 29.9744 20.4496 30.1172 20.0753 30.1172H17.4901C17.1158 30.1172 16.9376 29.9744 16.9376 29.6356C16.9376 29.2698 17.1242 29.154 17.4901 29.154H18.2209V25.9117H17.3118L17.2857 26.7937V26.901C17.2857 27.1773 17.1252 27.3462 16.8489 27.3462C16.5101 27.3462 16.3767 27.1763 16.3767 26.8282V26.7937L16.4224 25.4917C16.4401 25.0559 16.4569 24.9486 16.9114 24.9486ZM6.41178 24.9579H8.21214C9.64663 24.9579 10.3681 25.5197 10.3681 26.5716C10.3681 27.6859 9.64663 28.2739 8.21214 28.2739H7.472V29.1633H7.90972C8.26624 29.1633 8.44359 29.2791 8.44359 29.6356C8.44359 29.9921 8.26624 30.1172 7.90972 30.1172H6.41087C6.05435 30.1172 5.877 29.9921 5.877 29.6356C5.877 29.3332 6.04503 29.1633 6.33995 29.1633H6.41087V25.9211H6.34924C6.04591 25.9211 5.877 25.7512 5.877 25.4395C5.877 25.0923 6.05526 24.9579 6.41178 24.9579ZM11.7717 24.9579H13.573C15.0075 24.9579 15.729 25.5197 15.729 26.5716C15.729 27.6859 15.0075 28.2739 13.573 28.2739H12.8329V29.1633H13.2706C13.6271 29.1633 13.8045 29.2791 13.8045 29.6356C13.8045 29.9921 13.6271 30.1172 13.2706 30.1172H11.7717C11.4152 30.1172 11.2379 29.9921 11.2379 29.6356C11.2379 29.3332 11.4068 29.1633 11.7008 29.1633H11.7717V25.9211H11.7101C11.4068 25.9211 11.2379 25.7512 11.2379 25.4395C11.2379 25.0923 11.4152 24.9579 11.7717 24.9579ZM7.472 25.9556V27.293H8.08802C8.77399 27.293 9.12118 27.0522 9.12118 26.6154C9.12118 26.1786 8.77399 25.9556 8.08802 25.9556H7.472ZM12.8329 25.9556V27.293H13.4489C14.1348 27.293 14.483 27.0522 14.483 26.6154C14.483 26.1786 14.1348 25.9556 13.4489 25.9556H12.8329Z" fill="#DD4224"/>
<path d="M12.3828 4.20133C12.3828 2.03694 14.1683 0.251465 16.3327 0.251465H18.6659C19.0449 0.251465 19.3492 0.555789 19.3492 0.934767V1.86807C19.3492 2.24705 19.0449 2.55137 18.6659 2.55137H16.3327C15.3948 2.55137 14.6827 3.26342 14.6827 4.20133V6.53458C14.6827 6.91356 14.3784 7.21789 13.9994 7.21789H13.0661C12.6871 7.21789 12.3828 6.91356 12.3828 6.53458V4.20133Z" fill="#DD4224" stroke="white" stroke-width="0.5"/>
</svg>
